<?xml version="1.0" encoding="utf-8"?>
<!-- Generator: Adobe Illustrator 19.2.1, SVG Export Plug-In . SVG Version: 6.00 Build 0)  -->
<svg version="1.1" id="Layer_1" xmlns="http://www.w3.org/2000/svg" xmlns:xlink="http://www.w3.org/1999/xlink" x="0px" y="0px"
	 viewBox="0 0 71.4 71.4" style="enable-background:new 0 0 71.4 71.4;" xml:space="preserve">
<style type="text/css">
	.st0{display:none;}
	.st1{display:inline;}
	.st2{fill:none;}
</style>
<g class="st0">
	<rect x="-864.3" y="-75.3" class="st1" width="1448" height="452"/>
</g>
<g>
	<path class="st2" d="M55.8,9.2c-4.2-0.2-7.4-0.4-10.7,2.9c-3.3,3.3-3.1,6.5-2.9,10.7c0.2,4.2,0.4,9.4-3.9,14.2l29,29V7.2
		C63.3,9.5,59.2,9.4,55.8,9.2z"/>
	<path class="st2" d="M22.8,42.1c-4.2-0.2-7.4-0.4-10.7,2.9C8.8,48.3,9,51.6,9.2,55.8c0.2,3.4,0.3,7.5-2,11.6H66l-29-29
		C32.2,42.6,27,42.3,22.8,42.1z"/>
	<polygon points="68.4,68.4 68.4,67.3 67.3,68.4 	"/>
	<path d="M70.6,4.7c1.1-1.1,1.1-2.8,0-3.9s-2.8-1.1-3.9,0C63.4,4.1,60.2,3.9,56,3.7c-4.4-0.2-9.9-0.5-14.8,4.5s-4.7,10.4-4.5,14.8
		c0.2,3.9,0.3,7-2.3,10l-2.5-2.5l3.1-3.1l-12.3-4.9l0,0l4.9,12.3l3.1-3.1l2.5,2.5c-3,2.6-6.2,2.5-10,2.3c-4.4-0.2-9.9-0.5-14.8,4.5
		c-5,5-4.7,10.4-4.5,14.8c0.2,4.2,0.4,7.4-2.9,10.7c-1.1,1.1-1.1,2.8,0,3.9c0.5,0.5,1.2,0.8,1.9,0.8s1.4-0.3,1.9-0.8
		c0.7-0.7,1.3-1.4,1.8-2.2h60.6l0.1,0.1l0.1-0.1l1.1-1.1l0.1-0.1l-0.1-0.1V6.5C69.2,6,69.9,5.4,70.6,4.7z M7.2,67.3
		c2.3-4,2.1-8.1,2-11.6c-0.2-4.2-0.4-7.4,2.9-10.7c3.3-3.3,6.5-3.1,10.7-2.9c4.2,0.2,9.4,0.4,14.2-3.9l29,29H7.2z M67.3,66l-29-29
		c4.3-4.8,4.1-10,3.9-14.2c-0.2-4.2-0.4-7.4,2.9-10.7c3.3-3.3,6.5-3.1,10.7-2.9c3.4,0.2,7.5,0.3,11.6-2V66z"/>
</g>
</svg>
