<?xml version="1.0" encoding="utf-8"?>
<!-- Generator: Adobe Illustrator 19.2.1, SVG Export Plug-In . SVG Version: 6.00 Build 0)  -->
<svg version="1.1" id="Layer_1" xmlns="http://www.w3.org/2000/svg" xmlns:xlink="http://www.w3.org/1999/xlink" x="0px" y="0px"
	 viewBox="0 0 70 90" style="enable-background:new 0 0 70 90;" xml:space="preserve">
<path d="M68,40h-8v9h-5v-9H45v9h-5v-9h-5V15L20,0L5,15v25H2L0,90h70L68,40z M9.5,15h3v5h-3V15z M15,49h-5v-9h5V49z M18.5,20h-3v-5h3
	V20z M24.5,20h-3v-5h3V20z M30,49h-5v-9h5V49z M30.5,20h-3v-5h3V20z M39.5,84h-7v-3h7V84z M44,74h-7v-3h7V74z M54,64h-7v-3h7V64z"/>
</svg>
