<?xml version="1.0" encoding="utf-8"?>
<!-- Generator: Adobe Illustrator 19.2.1, SVG Export Plug-In . SVG Version: 6.00 Build 0)  -->
<svg version="1.1"
	 id="Layer_1" xmlns:cc="http://creativecommons.org/ns#" xmlns:dc="http://purl.org/dc/elements/1.1/" xmlns:inkscape="http://www.inkscape.org/namespaces/inkscape" xmlns:rdf="http://www.w3.org/1999/02/22-rdf-syntax-ns#" xmlns:sodipodi="http://sodipodi.sourceforge.net/DTD/sodipodi-0.dtd" xmlns:svg="http://www.w3.org/2000/svg"
	 xmlns="http://www.w3.org/2000/svg" xmlns:xlink="http://www.w3.org/1999/xlink" x="0px" y="0px" viewBox="0 0 86 66"
	 style="enable-background:new 0 0 86 66;" xml:space="preserve">
<g transform="translate(0,-952.36218)">
	<path d="M43,952.4c-2.8,0-5,2.2-5,5s2.2,5,5,5c2.8,0,5-2.2,5-5S45.8,952.4,43,952.4z M41.1,964.1L26,985.4l-17.8-6.8
		c-0.6,0.6-1.4,1.1-2.3,1.4l9.1,26.3h56l9.1-26.3c-0.9-0.3-1.7-0.8-2.3-1.4L60,985.4l-15.1-21.3c-0.6,0.2-1.3,0.3-1.9,0.3
		C42.3,964.4,41.7,964.3,41.1,964.1z M4,970.4c-2.2,0-4,1.8-4,4c0,2.2,1.8,4,4,4s4-1.8,4-4C8,972.2,6.2,970.4,4,970.4z M82,970.4
		c-2.2,0-4,1.8-4,4c0,2.2,1.8,4,4,4s4-1.8,4-4C86,972.2,84.2,970.4,82,970.4z M15,1008.4v10h56v-10H15z"/>
</g>
</svg>
