<?xml version="1.0" encoding="utf-8"?>
<!-- Generator: Adobe Illustrator 19.2.1, SVG Export Plug-In . SVG Version: 6.00 Build 0)  -->
<svg version="1.1" id="Layer_1" xmlns="http://www.w3.org/2000/svg" xmlns:xlink="http://www.w3.org/1999/xlink" x="0px" y="0px"
	 viewBox="0 0 53.5 84.9" style="enable-background:new 0 0 53.5 84.9;" xml:space="preserve">
<path d="M52.7,17.1c0.7-4.7,0.9-9.8,0.7-16.2c0-0.1,0-0.2-0.1-0.3l0,0c0-0.1-0.1-0.2-0.2-0.3L53,0.2c-0.1-0.1-0.1-0.1-0.2-0.2
	c0,0,0,0-0.1,0l0,0c0,0,0,0-0.1,0s-0.2,0-0.3,0l0,0c-0.1,0-0.3,0-0.4,0.1h-0.1c-0.1,0-0.2,0.1-0.2,0.1l-0.1,0.1c0,0-0.1,0-0.1,0.1
	l-1.8,2.2C31.9,24.1,20.2,38.3,21.5,47.9c0.4,2.6,1.7,4.9,4,6.8l-1.2,2.6H13.1c-0.6,0-1.1,0.5-1.1,1.1v5.8c0,0.6,0.5,1.1,1.1,1.1
	h2.4v1.5H1.1c-0.3,0-0.7,0.2-0.9,0.4C0,67.5-0.1,67.8,0,68.1L3.7,84c0.1,0.5,0.6,0.9,1.1,0.9h32.9c0.5,0,1-0.4,1.1-0.9l3.7-15.9
	c0.1-0.3,0-0.7-0.2-0.9c-0.2-0.3-0.5-0.4-0.9-0.4H27v-1.5h2.4c0.6,0,1.1-0.5,1.1-1.1v-5.8c0-0.6-0.5-1.1-1.1-1.1h-2.7l0.9-1.8
	C34.8,55,44,44.7,48.8,31.6c0.1-0.3,0.1-0.7-0.1-0.9c-0.2-0.3-0.5-0.5-0.8-0.5L46.4,30l4.1-3.7c0.2-0.1,0.3-0.3,0.3-0.5
	C51.6,22.9,52.2,20.1,52.7,17.1C52.7,17.2,52.7,17.2,52.7,17.1z M28.3,59.5v3.6h-2.4c-0.6,0-1.1,0.5-1.1,1.1v3.7
	c0,0.6,0.5,1.1,1.1,1.1H40l-3.2,13.7H5.7L2.5,69h14.1c0.6,0,1.1-0.5,1.1-1.1v-3.7c0-0.6-0.5-1.1-1.1-1.1h-2.4v-3.6h9l-7.9,16.6
	c-0.3,0.6,0,1.2,0.5,1.5c0.2,0.1,0.3,0.1,0.5,0.1c0.4,0,0.8-0.2,1-0.6l8.4-17.6H28.3z M50.5,16.4l-6.7,5l7.4-15.6
	C51.2,9.8,51,13.2,50.5,16.4z M23.6,47.6c-1.1-8,8.6-20.5,23.7-38.9L26.5,52.6C24.8,51.2,23.9,49.5,23.6,47.6z M43.1,29.7
	c-0.3,0.3-0.4,0.7-0.3,1.1c0.1,0.4,0.5,0.7,0.9,0.8l2.5,0.4c-4.7,11.8-12.1,19.5-17.5,21l13-27.4l8.3-6.1c-0.3,1.7-0.7,3.4-1.2,5.1
	L43.1,29.7z"/>
</svg>
