<?xml version="1.0" encoding="utf-8"?>
<!-- Generator: Adobe Illustrator 19.2.1, SVG Export Plug-In . SVG Version: 6.00 Build 0)  -->
<svg version="1.1" id="Layer_1" xmlns:sketch="http://www.bohemiancoding.com/sketch/ns"
	 xmlns="http://www.w3.org/2000/svg" xmlns:xlink="http://www.w3.org/1999/xlink" x="0px" y="0px" viewBox="0 0 100 100"
	 style="enable-background:new 0 0 100 100;" xml:space="preserve">
<title>chart_area_3</title>
<description>Created with Sketch (http://www.bohemiancoding.com/sketch)</description>
<g sketch:type="MSPage">
	<path sketch:type="MSShapeGroup" d="M4,96h91v-2l5,3l-5,3v-2l0,0H2v-1.5V5H0l3-5l3,5H4V96z M6,94l14.2-27.5l12.8,11l23.2-12
		l16.2,10.2L91,54.5V94H6z M7.1,86.9l12.6-24.4l13.3,12l23.9-12l15.5,9.4L91,50.2v-22L70.3,54.9L51.6,37.1L35.7,59L11,47.5L7.1,86.9
		z"/>
</g>
</svg>
