<?xml version="1.0" encoding="utf-8"?>
<!-- Generator: Adobe Illustrator 19.2.1, SVG Export Plug-In . SVG Version: 6.00 Build 0)  -->
<svg version="1.1" id="Layer_1" xmlns="http://www.w3.org/2000/svg" xmlns:xlink="http://www.w3.org/1999/xlink" x="0px" y="0px"
	 viewBox="0 0 888.8 999.8" style="enable-background:new 0 0 888.8 999.8;" xml:space="preserve">
<path d="M620.4,987.2c-143-100.5-146.1-288.1-145.2-326.5c-38.2-9.6-107.5-38.1-120.9-119.6c0,0,37.8,99.9,169.4,85.3
	c0,0,118.2,14.6,181.6,99.9c0,0,14.6,42.6,51.1,42.6s60.9,7.3,99.9-58.5l17-1.2c0,0,29.3-43.9,7.3-126.7
	c0,0-136.5-118.2-179.1-249.8c0,0-18.3-28.1-52.8-61.2h-0.1c-25.5-24.1-49.6-41.3-63.2-50.2c-3.7-2.4-7.3-4.8-11.2-7
	c-0.1-0.1-0.3-0.2-0.3-0.2S568,63.5,528.6,8.7c0,0-1.7,1.2-4.5,3.6c-1.6,1.3-3.1,2.8-4.7,4.3c-1.1,1.1-2.4,2.3-3.7,3.6
	c-1.9,2-3.8,3.9-5.5,5.9c-6,6.7-13.1,15.7-20.8,27.2c-8.6,13.3-17.2,29.8-24.3,49.7l0,0c8.6,29.7,10.5,52.2,10.5,52.2
	c20.8,14.8,32.2,31.6,32.2,31.6c-14.8-8.7-40.7-20.9-40.7-20.9C453.7,69.1,405.5,0.1,405.5,0.1s-0.4,0.2-0.8,0.5
	c-0.1,0.1-0.3,0.2-0.4,0.3c-0.5,0.4-1.2,0.9-2.1,1.5c-0.1,0.1-0.3,0.2-0.5,0.3c-16.1,11.8-79.4,63.6-86.9,155.7
	c0,0-5.9-20.7-3.3-51.9c0,0-68.5,4.3-109.2,27.7c-35,20.1-30.2,46.2-22.8,53.3c-20.6,8.1-44.9,19.6-62.1,34.4
	c-33.3,28.7-19,55.3-10.2,57.7c-17.5,13.9-37.8,32.5-50.1,52.1c-20.6,33-6.1,53.4,3.8,57.3c-16.3,15.5-35.2,36.1-45.8,57
	c-19.8,39.2,3.5,58.4,12.6,57.2c-10.9,19.5-22.5,44.5-26.4,67.3c-5.2,30.5,7.3,45.2,17.9,49.8c-8.7,22-18.9,53.3-19.2,79.9
	c-0.4,30.6,13.8,43.2,25,46.3c-3,12.3-5,24.8-5.1,36.5c0,0.7,0,1.4,0.1,2.1C103.2,1075.5,620.4,987.2,620.4,987.2z M777.7,649.4
	c3.4,0,6.7,0.5,9.8,1.4c-1.5,0.4-2.9,0.9-4.3,1.6c-18,8.4-24.8,32.1-15,52.9c2.1,4.5,4.8,8.5,7.9,11.9
	c-18.6-0.8-33.6-15.6-33.6-33.8C742.6,664.6,758.3,649.4,777.7,649.4z M566.9,372.2c0,0,34.7,15.2,21.4,54.9c0,0-21.1,14.1-50.8-5.7
	c-23.2-15.4-51.8-17.8-51.8-17.8S536.5,372.5,566.9,372.2z"/>
</svg>
