<?xml version="1.0" encoding="utf-8"?>
<!-- Generator: Adobe Illustrator 19.2.1, SVG Export Plug-In . SVG Version: 6.00 Build 0)  -->
<svg version="1.1" id="Layer_1" xmlns="http://www.w3.org/2000/svg" xmlns:xlink="http://www.w3.org/1999/xlink" x="0px" y="0px"
	 viewBox="0 0 68 90.1" style="enable-background:new 0 0 68 90.1;" xml:space="preserve">
<style type="text/css">
	.st0{fill:#FCFCFC;}
</style>
<path class="st0" d="M45,9.1c-2.2-3.2-3.9-5.7-4.7-6.9C37.8-1.7,35.1,1,35.1,1C23.8,9.5,3.6,32.9,0.3,49.6
	c-2.2,11,8.1,34.1,8.1,34.1c11.1,0,35,6.4,35,6.4s15.5-18.9,20.2-32.7c0.5-1.4,0.7-3,0.7-4.7C64.5,39.7,52.3,19.9,45,9.1z
	 M41.7,14.3c0,0,12.4,17.2,16.7,29.6c-5.3-3-13-5.4-21.3-6.6C38.6,26.7,40.2,17.6,41.7,14.3z M28.8,12.3c-1.6,3.8-3.5,13.3-5.1,24.1
	c-5.5,0.1-10.8,0.9-15.6,2.5C11.8,30.8,18.2,21.8,28.8,12.3z M10.9,78.4c0,0-5.9-12.8-6.2-23c5.1-2.3,11-3.5,17.1-3.9
	c-1.3,11.1-2.2,21.6-2.1,27.2C16.5,78.2,13.8,78.4,10.9,78.4z M41.8,85.6c-1.6-0.8-4.3-1.9-9.2-3.6c-0.1,0-0.3-0.1-0.4-0.1
	c0.1-3.6,1.3-16.2,2.9-29.8c8.9,1.2,17.1,3.7,22.8,6.9C53.3,71,41.8,85.6,41.8,85.6z"/>
<path class="st0" d="M55.6,1.7c16.6,31.8,10.6,41.4,9.6,48.7h0c0.1-12.9-12.1-32.8-19.4-43.6c1.7-2.4,6.2-5.5,7.7-6
	C55,0.3,55.6,1.7,55.6,1.7z"/>
</svg>
