<?xml version="1.0" encoding="utf-8"?>
<!-- Generator: Adobe Illustrator 19.2.1, SVG Export Plug-In . SVG Version: 6.00 Build 0)  -->
<svg version="1.1" id="Layer_1" xmlns="http://www.w3.org/2000/svg" xmlns:xlink="http://www.w3.org/1999/xlink" x="0px" y="0px"
	 viewBox="0 0 512 395.9" style="enable-background:new 0 0 512 395.9;" xml:space="preserve">
<path d="M465.8,129.5C409.4,71.2,318.5,66,256,115c-14.4-11.2-30.3-19.5-47-25.1c2.9-4.3,6.6-8.8,11.6-13.5
	C237.3,61,234.8,46,231.8,38.5C221.9,13.3,179.2,0,159.1,0S96.3,13.2,86.4,38.5C83.4,46,81,61,97.6,76.4c5.1,4.7,8.7,9.2,11.7,13.5
	c-21.6,7.2-42,19-59.5,35.9c-62.3,60.3-64,160-3.7,222.3c56.4,58.3,147.5,63.5,210,14.4c60.8,47.5,149,44.4,206-10.8
	C524.5,291.5,526.1,191.8,465.8,129.5z M256,323.8c-42.8-48.7-42.6-121.7-0.1-170C298.7,202.5,298.5,275.4,256,323.8z M112.7,48.8
	c3.6-9.3,31.6-20.5,46.4-20.5s42.8,11.2,46.4,20.5c0.8,2-2.2,5.2-4.1,6.9c-14.8,13.7-21.1,26.5-25.7,35.8
	c-5.6,11.4-6.1,12.3-16.6,12.3s-11-0.9-16.6-12.3 M66.4,328.5c-49.5-51.1-48.1-132.9,3-182.4c15.7-15.1,34.2-25.4,53.8-31
	c6.1,9.3,15.6,17.1,35.9,17.1s29.7-7.8,35.9-17c14.2,4.1,27.8,10.6,40.2,19.6c-52.3,59.1-52.7,148.6,0,208.1
	C184.1,380.2,111.7,375.3,66.4,328.5z M442.5,331.5c-45.7,44.3-116,47.7-165.7,11.4c52.3-59.1,52.6-148.6,0-208.1
	c51.1-37.4,123.5-32.5,168.8,14.3C495,200.2,493.7,282,442.5,331.5z"/>
</svg>
