<?xml version="1.0" encoding="utf-8"?>
<!-- Generator: Adobe Illustrator 19.2.1, SVG Export Plug-In . SVG Version: 6.00 Build 0)  -->
<svg version="1.1" id="Layer_1" xmlns="http://www.w3.org/2000/svg" xmlns:xlink="http://www.w3.org/1999/xlink" x="0px" y="0px"
	 viewBox="0 0 92.3 89.8" style="enable-background:new 0 0 92.3 89.8;" xml:space="preserve">
<path d="M92.1,55.9c-0.4-0.7-0.7-1.4-1-2c-0.9-1.9-1.5-3.1-2.8-3.6c0.8-0.4,1.3-1,1.8-2.2l0.1-0.3L90,47.6c-1.1-0.6-2.2-1.2-3.3-1.8
	c1.4-4.8-0.6-11-2.3-16.4c-0.1-0.4-0.3-0.8-0.4-1.2s-0.2-0.8-0.4-1.2C82,22,80.2,16,76.7,12.9c0.4-0.9,0.9-1.8,1.2-2.6L78,10
	l-0.3-0.2c-0.9-0.5-1.6-0.8-2.3-0.8c-0.2,0-0.3,0-0.5,0c0.7-1.3,0.5-2.5,0.1-4.6c-0.1-0.6-0.2-1.3-0.4-2.1L74.7,2L74.3,2
	c-0.8,0.1-1.5,0.2-2.2,0.3c-2.1,0.3-3.4,0.4-4.3,1.5c-0.2-0.9-0.6-1.5-1.5-2.4L66,1.3l-0.2,0.2c-0.7,0.6-1.3,1.2-2,1.8
	C59.9,0,53.1,0,48.7,0c-0.4,0-0.9,0-1.3,0c-0.8,0-1.6,0-2.5,0c-0.4,0-0.9,0-1.3,0c-4.5,0-11.2,0-15.1,3.3c-0.6-0.6-1.3-1.3-2-1.8
	l-0.2-0.2L26,1.5c-1,0.9-1.4,1.5-1.5,2.4c-1-1.1-2.3-1.2-4.3-1.5C19.5,2.3,18.8,2.2,18,2L17.6,2l-0.1,0.4c-0.1,0.8-0.3,1.5-0.4,2.2
	c-0.4,2-0.6,3.3,0.1,4.6c-0.2,0-0.3,0-0.5,0c-0.7,0-1.4,0.2-2.3,0.8L14.3,10l0.1,0.3c0.4,0.9,0.8,1.7,1.2,2.6
	C12.1,16,10.3,22,8.7,27c-0.1,0.4-0.3,0.8-0.4,1.2S8,29,7.9,29.5c-1.7,5.3-3.7,11.6-2.3,16.4c-1.2,0.6-2.3,1.2-3.3,1.8L2,47.8
	l0.1,0.3c0.5,1.2,1,1.8,1.8,2.2c-1.3,0.6-1.9,1.8-2.8,3.6c-0.3,0.6-0.6,1.2-1,2L0,56.2l0.3,0.2c0.7,0.4,1.4,0.7,1.9,1
	c1.5,0.8,2.6,1.4,3.7,1.4c0.2,0,0.5,0,0.7-0.1c-0.4,0.8-0.4,1.6-0.2,2.8l0.1,0.3l0.3,0c1.2-0.1,2.4-0.3,3.6-0.5
	c1.6,4.7,6.8,8.6,11.2,11.8c0.3,0.2,0.7,0.5,1,0.7c0.3,0.2,0.7,0.5,1,0.7c4.5,3.4,9.5,7.1,14.4,7.3c0.2,1,0.3,2,0.6,3l0.1,0.3l0.3,0
	c1.3-0.1,2-0.4,2.6-1c0.2,1.4,1.1,2.3,2.6,3.8c0.5,0.4,1,0.9,1.6,1.5l0.3,0.3l0.3-0.3c0.6-0.6,1.1-1.1,1.6-1.5
	c1.5-1.4,2.5-2.3,2.6-3.8c0.6,0.6,1.3,0.9,2.6,1l0.3,0l0.1-0.3c0.2-0.9,0.4-1.9,0.6-3c4.9-0.2,9.9-3.9,14.4-7.3
	c0.3-0.3,0.7-0.5,1-0.7c0.3-0.2,0.7-0.5,1-0.7c4.4-3.3,9.6-7.1,11.2-11.8c1.2,0.2,2.4,0.4,3.6,0.5l0.3,0l0.1-0.3
	c0.3-1.3,0.2-2-0.2-2.8c0.2,0.1,0.5,0.1,0.7,0.1h0c1.1,0,2.1-0.6,3.7-1.4c0.6-0.3,1.2-0.6,1.9-1l0.3-0.2L92.1,55.9z M76.9,38.1
	c1.5,0.9,2.9,1.9,4,3.4c1.7,2.4,1.4,4.8-0.6,6.3c-0.8,0.6-1.8,0.7-1.9,0.7l-0.4,0l1.6-2.6c0.4-0.7,0.1-2.5-0.5-3.4
	c-1-1.4-1.7-2.4-3-3.2l-0.3-0.2c-1.3-0.8-2.7-1.6-3.8-2.9c-0.7-0.8-1.3-1.8-1.7-3.3c-0.5-1.5-0.6-2.7-0.5-3.7
	c0.2-1.7,0.8-3.2,1.4-4.6l0.2-0.4c0.6-1.5,0.7-2.8,0.6-4.5c0-1-0.8-2.7-1.5-3l-2.8-1.1l0.3-0.2c0,0,1-0.6,1.9-0.6
	c2.5,0,4,1.8,4.1,4.7c0,1.9-0.6,3.5-1.3,5.1c-0.2,0.4-0.4,0.9-0.6,1.3c-0.5,1.1-1.1,2.3-1.2,3.4c-0.1,1.1,0.3,2.5,0.4,3.1
	c0.1,0.4,0.7,2,1.4,2.8c0.8,0.9,1.9,1.5,3,2.1C76.1,37.7,76.5,37.9,76.9,38.1z M66.6,7.6c-0.4-1.5-1.2-2.8-2.2-3.8
	c0.5-0.5,1.1-1.1,1.6-1.5c1,0.9,1.1,1.6,1.1,2.6l0.1,1.3l0.6-1.1c0.8-1.5,2-1.7,4.4-2C72.8,3,73.4,2.9,74,2.8
	c0.1,0.7,0.2,1.3,0.3,1.8C74.8,7,75,8.1,73.8,9.4l-0.9,1l1.3-0.4c0.5-0.2,0.9-0.2,1.2-0.2c0.5,0,1,0.1,1.6,0.5
	c-0.3,0.7-0.6,1.4-1,2.1c-1.5-1.2-3.3-1.8-5.4-1.8C66.2,10.8,65,14.2,64,17c-1,2.9-1.8,4.7-4.3,4.7c0,0,0,0,0,0
	c-0.8-2.5,0.6-3.8,3-5.7C65.1,14.1,67.8,11.9,66.6,7.6z M54.5,54.9c1.2,1,2.3,1.9,1.8,3.7c-0.9,3.2-4.9,3.5-8.8,3.5l-1.4,0l-1.4,0
	c-4,0-7.9-0.3-8.8-3.5c-0.5-1.8,0.6-2.7,1.8-3.7c1.2-1,2.6-2.1,1.8-4.2l-0.1-0.2l-0.2,0c-0.1,0-0.2,0-0.3,0c-1.9,0-2.5,1.6-3,3
	c-0.5,1.5-1,2.9-2.8,2.9l-0.1,0c-3.5,0-4.9-4.6-6-8.2l-0.4-1.3c-1.2-3.7-2.7-8.3,0.3-10.4c0.5-0.3,1-0.5,1.4-0.5
	c0.9,0,1.7,0.6,2.5,1.1c0.8,0.6,1.7,1.2,2.6,1.2c0.6,0,1.2-0.2,1.8-0.8l0.2-0.1l0-0.2c-0.5-2.2-2.3-2.3-3.8-2.3
	c-1.6-0.1-3-0.1-3.6-1.9c-1.2-3.5,2.6-6.3,5.7-8.6l1.1-0.8c2.2-1.7,5-3.7,7.4-3.7c0.9,0,1.6,0.3,2.3,0.8c1.5,1.2,1.1,2.6,0.6,4.1
	c-0.4,1.5-0.9,3.3,1,4.4l0.2,0.1l0.2-0.1c1.9-1.2,1.4-2.9,1-4.4c-0.4-1.5-0.8-2.9,0.6-4.1c0.7-0.5,1.4-0.8,2.3-0.8
	c2.4,0,5.1,2.1,7.4,3.7l1.1,0.8c3.1,2.3,6.9,5.1,5.7,8.6c-0.6,1.8-2,1.8-3.6,1.9c-1.6,0.1-3.3,0.1-3.8,2.3l0,0.2l0.2,0.1
	c0.6,0.5,1.2,0.8,1.8,0.8c1,0,1.8-0.6,2.6-1.2c0.8-0.6,1.6-1.1,2.5-1.1c0.5,0,0.9,0.2,1.4,0.5c2.9,2.1,1.5,6.7,0.3,10.4l-0.4,1.3
	c-1.1,3.7-2.6,8.2-6,8.2l-0.1,0c-1.8-0.1-2.3-1.4-2.8-2.9c-0.5-1.5-1.1-3.2-3.3-3l-0.2,0l-0.1,0.2C51.9,52.8,53.3,53.9,54.5,54.9z
	 M29.4,9.7c0.6-1.8,1.9-2.9,3.8-2.9c0.6,0,1.2,0.1,1.9,0.3c1.7,0.5,3,1.6,4.4,2.8c0.3,0.3,0.7,0.7,1,1c0.9,0.9,1.8,1.7,2.8,2.2
	c1,0.5,2.4,0.5,3,0.5c0.6,0,2,0,3-0.5c1-0.5,1.9-1.4,2.8-2.2c0.3-0.3,0.7-0.7,1-1c1.4-1.2,2.6-2.3,4.4-2.8c0.6-0.2,1.2-0.3,1.8-0.3
	l0.1,0c1.9,0,3.2,1,3.8,2.8c0.3,0.9,0.1,2,0.1,2l-0.1,0.4l-1.9-2.4C60.9,9.3,60,9.1,59,9.1c-0.4,0-0.8,0-1,0.1
	c-1.6,0.5-2.8,0.9-3.9,2l-0.3,0.3c-1.1,1-2.3,2.1-3.8,2.8C49,14.7,47.8,15,46.3,15h0c-1,0-2.4-0.1-3.6-0.6c-1.5-0.7-2.7-1.8-3.8-2.8
	l-0.3-0.3c-1.2-1.1-2.3-1.5-3.9-2c-0.3-0.1-0.6-0.1-1-0.1c-1,0-1.9,0.3-2.2,0.7l-1.9,2.4l-0.1-0.4C29.3,11.7,29.1,10.6,29.4,9.7z
	 M15.2,10.3c0.6-0.3,1.1-0.5,1.6-0.5c0.3,0,0.7,0.1,1.2,0.2l1.3,0.4l-0.9-1c-1.2-1.3-1-2.4-0.5-4.8c0.1-0.5,0.2-1.1,0.3-1.8
	c0.7,0.1,1.3,0.2,1.8,0.3c2.4,0.3,3.5,0.5,4.4,2l0.6,1.1l0.1-1.3c0-1.1,0.2-1.7,1.1-2.6c0.6,0.5,1.1,1,1.6,1.5c-1,1-1.8,2.2-2.2,3.8
	c-1.2,4.3,1.5,6.5,3.9,8.4c2.4,1.9,3.8,3.2,3,5.7c0,0,0,0,0,0c-2.5,0-3.3-1.8-4.3-4.7c-1-2.8-2.2-6.3-6.6-6.4c-0.1,0-0.2,0-0.3,0
	c-2,0-3.7,0.7-5.1,1.8C15.9,11.7,15.5,11,15.2,10.3z M11.5,41.3c1-1.5,2.5-2.5,4-3.4c0.4-0.2,0.8-0.5,1.3-0.7c1.1-0.6,2.2-1.2,2.9-2
	c0.7-0.8,1.2-2.1,1.4-2.8c0.2-0.6,0.6-2,0.5-3.1c-0.1-1.2-0.7-2.3-1.2-3.4c-0.2-0.4-0.4-0.9-0.6-1.3c-0.7-1.7-1.3-3.3-1.3-5.1
	c0.1-3,1.6-4.7,4.1-4.7c1,0,1.9,0.5,1.9,0.6l0.3,0.2L22,16.5c-0.7,0.3-1.5,2-1.5,3c0,1.5,0,2.9,0.6,4.5l0.2,0.4
	c0.6,1.4,1.2,2.9,1.4,4.6c0.1,1,0,2.2-0.5,3.7c-0.3,0.9-0.8,2.3-1.7,3.3c-1.1,1.3-2.5,2.1-3.8,2.9l-0.3,0.2C15,40,14.2,41,13.2,42.4
	c-0.6,0.8-0.9,2.7-0.5,3.4l1.7,2.5l-0.4,0c0,0-1.1-0.1-1.9-0.7C10.1,46.1,9.9,43.7,11.5,41.3z M10.6,55.5c-0.6,1.8-0.6,3.5-0.2,5.1
	c-1.1,0.2-2.1,0.3-3.2,0.4c-0.2-1.3,0-1.9,0.6-2.8l0.7-1.1l-1.2,0.6c-0.5,0.2-0.9,0.3-1.4,0.3c-0.9,0-1.9-0.5-3.3-1.3
	c-0.5-0.3-1-0.5-1.6-0.9c0.3-0.6,0.6-1.2,0.8-1.6c1.1-2.2,1.5-3.2,3.2-3.5l1.3-0.3L5.1,50c-1-0.4-1.6-0.7-2.2-1.9
	c0.9-0.6,1.9-1.1,2.9-1.6c0.6,1.5,1.6,2.9,3.1,4c1.2,0.8,2.3,1.2,3.5,1.2c0,0,0,0,0,0c2.1,0,3.9-1.2,5.5-2.4c1.4-1,2.8-1.9,4.1-1.9
	c0.7,0,1.4,0.3,2,0.8c-0.8,2.5-2.7,2.7-5.7,2.8C15.6,51.1,12,51.2,10.6,55.5z M35.8,74.8c-1.1-1.5-1.5-3.1-1.9-4.9
	c-0.1-0.5-0.2-0.9-0.3-1.4c-0.2-1.2-0.4-2.5-1-3.5c-0.5-1-1.7-1.9-2.2-2.2c-0.5-0.4-1.7-1.2-2.7-1.4c-0.4-0.1-0.7-0.1-1.2-0.1
	c-0.8,0-1.6,0.1-2.4,0.2c-0.4,0.1-0.9,0.1-1.4,0.2c-0.7,0.1-1.5,0.1-2.2,0.1c-1.1,0-2-0.1-2.9-0.5c-2.7-1-3.9-3-3.1-5.5
	c0.3-0.9,1.1-1.6,1.1-1.7l0.3-0.3l0.1,3.1c0,0.8,1.4,2.1,2.3,2.4c1.3,0.5,2.4,0.8,3.6,0.8c0.2,0,0.4,0,0.7,0l0.4,0
	c0.9-0.1,1.8-0.2,2.7-0.2c0.8,0,1.4,0.1,2.1,0.2c1.3,0.3,2.5,1.1,3.3,1.7c0.8,0.6,1.9,1.5,2.5,2.7c0.8,1.5,1.1,3.1,1.5,4.6l0.1,0.5
	c0.3,1.6,1.1,2.6,2.1,4c0.5,0.7,1.9,1.6,2.7,1.6c0.1,0,0.2,0,0.2,0l2.9-0.8l-0.2,0.4c0,0-0.5,1-1.2,1.6c-0.8,0.6-1.6,0.9-2.4,0.9
	C38.2,77,36.9,76.3,35.8,74.8z M53,84.4c-1.3-0.2-1.8-0.6-2.5-1.5l-0.8-1l0.2,1.3c0.2,1.7-0.6,2.5-2.4,4.2c-0.4,0.4-0.8,0.8-1.3,1.3
	c-0.5-0.5-0.9-0.9-1.3-1.3c-1.8-1.7-2.6-2.4-2.4-4.2l0.2-1.3l-0.8,1c-0.7,0.8-1.2,1.3-2.5,1.5c-0.2-0.8-0.3-1.6-0.5-2.5
	c1.8-0.1,3.4-0.7,4.8-1.8c3.5-2.8,2.5-6.2,1.7-9.2c-0.8-3-1.2-4.9,0.8-6.4C48.2,66,47.8,68,47,71c-0.8,3-1.8,6.4,1.7,9.2
	c1.4,1.1,3,1.7,4.8,1.8C53.3,82.8,53.1,83.6,53,84.4z M74.4,61.5c-0.9,0.3-1.8,0.5-2.9,0.5c-0.7,0-1.5-0.1-2.2-0.1
	c-0.4,0-0.9-0.1-1.4-0.2c-0.8-0.1-1.6-0.2-2.4-0.2c-0.4,0-0.8,0-1.2,0.1c-1.1,0.2-2.3,1-2.7,1.4c-0.5,0.3-1.6,1.3-2.1,2.2
	c-0.5,1-0.8,2.3-1,3.5c-0.1,0.5-0.2,1-0.3,1.4c-0.4,1.8-0.8,3.4-1.9,4.9c-1.1,1.4-2.4,2.2-3.7,2.2c-0.8,0-1.6-0.3-2.4-0.9
	c-0.7-0.6-1.2-1.6-1.2-1.6l-0.2-0.4l2.9,0.8c0.1,0,0.2,0,0.2,0c0.8,0,2.2-0.9,2.7-1.6c1-1.3,1.7-2.4,2-4l0.1-0.4
	c0.3-1.6,0.7-3.2,1.5-4.7c0.6-1.2,1.8-2.1,2.5-2.7c0.8-0.6,2-1.4,3.3-1.7c0.6-0.1,1.3-0.2,2.1-0.2c0.9,0,1.8,0.1,2.7,0.2l0.4,0
	c0.2,0,0.5,0,0.7,0c1.3,0,2.3-0.3,3.7-0.8c0.9-0.3,2.3-1.6,2.3-2.4l0.1-3.1l0.3,0.3c0,0,0.8,0.8,1.1,1.7
	C78.3,58.4,77.1,60.5,74.4,61.5z M89.7,56.8c-1.4,0.8-2.4,1.3-3.3,1.3c-0.4,0-0.9-0.1-1.4-0.3l-1.2-0.6l0.7,1.1
	c0.6,0.9,0.9,1.5,0.6,2.8c-1-0.1-2.1-0.2-3.2-0.4c0.4-1.6,0.4-3.3-0.2-5.1c-1.5-4.3-5.1-4.4-8-4.5c-3-0.1-4.9-0.3-5.7-2.8
	c0.7-0.5,1.4-0.8,2-0.8c1.3,0,2.7,0.9,4.1,1.9c1.7,1.2,3.5,2.4,5.6,2.4c1.2,0,2.4-0.4,3.5-1.2c1.5-1.1,2.5-2.4,3.1-4
	c1,0.5,2,1,2.9,1.6c-0.6,1.2-1.1,1.5-2.2,1.9l-1.2,0.5l1.3,0.3c1.7,0.3,2.2,1.3,3.2,3.5c0.2,0.5,0.5,1,0.8,1.6
	C90.7,56.2,90.1,56.5,89.7,56.8z"/>
<path d="M59,53.8l-1.7,0.6l0.3,0.2c0,0,0.5,0.3,1.1,0.3h0c1.4,0,2.2-1,2.3-2.6c0-1-0.3-1.9-0.7-2.8c-0.1-0.2-0.2-0.5-0.3-0.7
	c-0.3-0.6-0.6-1.2-0.6-1.8c-0.1-0.6,0.1-1.3,0.2-1.6c0.1-0.2,0.3-1,0.7-1.5c0.4-0.4,1-0.8,1.6-1.1c0.2-0.1,0.4-0.2,0.6-0.4
	c0.8-0.5,1.6-1,2.1-1.8c0.9-1.3,0.8-2.6-0.3-3.5c-0.4-0.3-1-0.4-1-0.4l-0.4,0l1,1.5c0.2,0.3,0,1.3-0.3,1.7c-0.5,0.7-0.9,1.3-1.6,1.7
	l-0.2,0.1c-0.7,0.4-1.5,0.9-2.1,1.6c-0.4,0.4-0.7,1-0.9,1.8c-0.3,0.8-0.3,1.5-0.3,2c0.1,0.9,0.5,1.7,0.8,2.5l0.1,0.2
	c0.3,0.8,0.3,1.5,0.3,2.4C59.8,52.8,59.4,53.7,59,53.8z M58.8,54.8L58.8,54.8L58.8,54.8L58.8,54.8z"/>
<path d="M37.2,56.2l-0.1,0.4c0,0-0.1,0.6,0,1.1c0.3,1,1.1,1.6,2.1,1.6c0.3,0,0.7-0.1,1-0.2c0.9-0.3,1.6-0.9,2.4-1.5
	c0.2-0.2,0.4-0.3,0.5-0.5c0.5-0.5,0.9-0.9,1.5-1.2c0.5-0.2,1.3-0.3,1.6-0.3c0.2,0,1,0,1.6,0.3c0.5,0.3,1,0.7,1.5,1.2
	c0.2,0.2,0.4,0.4,0.6,0.5c0.7,0.7,1.4,1.2,2.4,1.5c0.3,0.1,0.7,0.2,1,0.2l0,0c1,0,1.8-0.6,2.1-1.6c0.2-0.5,0-1.1,0-1.1l-0.1-0.4
	l-1.1,1.4c-0.1,0.2-0.6,0.3-1.1,0.3c-0.2,0-0.4,0-0.5-0.1c-0.9-0.3-1.5-0.5-2.1-1l-0.2-0.2c-0.6-0.6-1.2-1.1-2.1-1.5
	c-0.7-0.3-1.4-0.4-2-0.4c-0.5,0-1.3,0-2,0.4c-0.8,0.4-1.4,1-2.1,1.5L42,56.8c-0.6,0.5-1.2,0.8-2.1,1c-0.1,0-0.3,0.1-0.5,0.1
	c-0.5,0-1-0.1-1.1-0.3L37.2,56.2z"/>
<path d="M39.6,28.5c0.4-0.8,0.6-1.7,0.8-2.5l0.1-0.2c0.2-0.8,0.5-1.4,1.1-2.1c0.3-0.4,1-0.8,1.4-0.8c0,0,0.1,0,0.1,0l1.7,0.5
	L44.6,23c0,0-0.3-0.6-0.7-0.9c-0.4-0.3-0.9-0.5-1.3-0.5c-0.7,0-1.4,0.4-2,1.2c-0.6,0.8-0.8,1.7-1,2.7c-0.1,0.2-0.1,0.5-0.1,0.8
	c-0.1,0.6-0.2,1.3-0.5,1.8c-0.3,0.5-0.9,1-1.1,1.2c-0.2,0.2-0.9,0.6-1.4,0.7c-0.5,0.1-1.2,0-1.9-0.1c-0.2,0-0.5-0.1-0.7-0.1
	c-0.4,0-0.8-0.1-1.2-0.1c-0.6,0-1.1,0.1-1.6,0.3c-1.5,0.5-2.2,1.7-1.7,3c0.2,0.5,0.6,0.9,0.6,0.9l0.3,0.3l0.1-1.8
	c0-0.4,0.7-1,1.2-1.2c0.8-0.3,1.5-0.5,2.3-0.4l0.2,0c0.8,0.1,1.8,0.1,2.6,0c0.7-0.1,1.4-0.6,1.8-0.9C38.7,29.7,39.3,29.2,39.6,28.5z
	"/>
<path d="M32.5,52.4c0-0.8,0-1.5,0.3-2.3l0.1-0.2c0.3-0.8,0.7-1.6,0.8-2.5c0.1-0.6,0-1.2-0.3-2c-0.2-0.5-0.4-1.3-0.9-1.8
	c-0.6-0.7-1.4-1.1-2.1-1.6l-0.2-0.1c-0.7-0.4-1.1-1-1.6-1.7c-0.3-0.4-0.5-1.4-0.3-1.7l1-1.5L29,37c0,0-0.6,0.1-1,0.4
	c-1.1,0.8-1.3,2.1-0.3,3.5c0.6,0.8,1.3,1.3,2.1,1.8c0.2,0.1,0.4,0.3,0.7,0.4c0.6,0.3,1.1,0.6,1.5,1.1c0.4,0.4,0.6,1.2,0.7,1.5
	c0.1,0.3,0.3,1.1,0.2,1.6c-0.1,0.6-0.4,1.2-0.6,1.8c-0.1,0.2-0.2,0.5-0.3,0.7c-0.4,0.9-0.7,1.8-0.7,2.8c0,1.6,0.9,2.6,2.3,2.6h0
	c0.5,0,1-0.3,1.1-0.3l0.3-0.2L33.3,54C32.9,53.8,32.5,52.9,32.5,52.4z M33.5,54.9L33.5,54.9L33.5,54.9L33.5,54.9z"/>
<path d="M49.3,22.8c0.4,0,1.1,0.4,1.4,0.8c0.5,0.7,0.9,1.3,1.1,2.1l0,0.2c0.2,0.8,0.4,1.7,0.8,2.5c0.3,0.6,1,1.1,1.4,1.5
	c0.4,0.3,1.1,0.8,1.8,0.9c0.8,0.2,1.7,0.1,2.5,0l0.2,0c0.8-0.1,1.4,0.1,2.3,0.4c0.5,0.2,1.2,0.8,1.2,1.2l0.1,1.8l0.3-0.3
	c0,0,0.5-0.4,0.6-0.9c0.4-1.4-0.2-2.5-1.7-3c-0.5-0.2-1-0.3-1.6-0.3c-0.4,0-0.8,0-1.2,0.1c-0.2,0-0.5,0.1-0.7,0.1
	c-0.7,0.1-1.4,0.2-1.9,0.1c-0.5-0.1-1.2-0.5-1.4-0.7c-0.2-0.2-0.8-0.7-1.1-1.2c-0.3-0.5-0.4-1.2-0.5-1.8c0-0.3-0.1-0.5-0.1-0.8
	c-0.2-1-0.4-1.9-1-2.7c-0.6-0.8-1.3-1.2-2-1.2c-0.4,0-0.9,0.2-1.3,0.5c-0.4,0.3-0.7,0.9-0.7,0.9l-0.2,0.4l1.7-0.5
	C49.2,22.8,49.2,22.8,49.3,22.8z"/>
<path d="M42.1,49.5c0.1,0,0.3,0,0.5,0c0.5,0.5,1.1,1,2.1,1c0.4,0,0.9-0.1,1.5-0.3c0.5,0.3,1,0.4,1.5,0.4c1,0,1.6-0.6,2.1-1.1
	c0.1,0,0.1,0,0.2,0c1,0,2.2-0.1,2.7-1.9c0.9-0.3,1.5-0.7,1.8-1.2c0.3-0.5,0.3-1.1,0.2-1.7c1.2-0.9,1.4-2.2,0.7-3.6
	c0.8-2-0.1-2.9-0.7-3.6c0.2-1.5-0.5-2.5-2-3c-0.5-1.8-1.9-2-2.9-2c-1-1.1-2.2-1.3-3.6-0.7c-1.4-0.6-2.6-0.3-3.6,0.7
	c-0.2,0-0.3,0-0.4,0c-1.6,0-2.3,1.4-2.5,2c-1.8,0.7-2,1.9-2,3c-1.4,1.4-1.2,2.7-0.7,3.6c-0.4,0.8-1.1,2.5,0.7,3.6
	c0,1.9,1.1,2.7,2,2.9c0,0.1,0.1,0.1,0.1,0.2C40.1,48.5,40.5,49.5,42.1,49.5z M40.3,47.1l-0.1-0.2l-0.2,0c-1.1-0.2-1.6-1-1.6-2.4
	l0-0.2l-0.2-0.1c-1.1-0.6-1.3-1.5-0.5-3l0.1-0.2l-0.1-0.2c-0.6-1-0.4-2,0.6-3l0.1-0.1l0-0.2c-0.1-1.1,0.2-1.9,1.7-2.4l0.2-0.1
	l0.1-0.2c0.5-1.4,1.2-1.9,2.4-1.7l0.2,0L43,33c0.8-1,1.8-1.2,3-0.6l0.2,0.1l0.2-0.1c1.2-0.5,2.2-0.4,3,0.6l0.1,0.1l0.2,0
	c1.2,0,2.1,0.1,2.4,1.6l0.1,0.2l0.2,0.1c1.4,0.4,1.8,1.1,1.6,2.4l0,0.2l0.2,0.2c0.6,0.6,1.3,1.3,0.6,3L54.5,41l0.1,0.2
	c0.7,1.3,0.5,2.2-0.6,3l-0.2,0.1l0.1,0.3c0.2,0.6,0.1,1-0.1,1.4c-0.2,0.4-0.8,0.7-1.6,0.9l-0.2,0.1L52,47.1
	c-0.4,1.5-1.1,1.6-2.1,1.6c-0.1,0-0.3,0-0.4,0l-0.2,0l-0.1,0.1c-0.5,0.7-1,1-1.6,1c-0.4,0-0.8-0.1-1.3-0.4l-0.2-0.1L46,49.5
	c-0.5,0.2-1,0.3-1.3,0.3c-0.7,0-1.1-0.4-1.6-0.9l-0.2-0.2l-0.2,0c-0.2,0-0.4,0-0.5,0c-1.1,0-1.4-0.6-1.7-1.3
	C40.4,47.3,40.3,47.2,40.3,47.1z"/>
</svg>
